<?xml version="1.0" encoding="iso-8859-1"?>
<!-- Generator: Adobe Illustrator 16.0.0, SVG Export Plug-In . SVG Version: 6.00 Build 0)  -->
<!DOCTYPE svg PUBLIC "-//W3C//DTD SVG 1.1//EN" "http://www.w3.org/Graphics/SVG/1.1/DTD/svg11.dtd">
<svg version="1.1" id="Capa_1" xmlns="http://www.w3.org/2000/svg" xmlns:xlink="http://www.w3.org/1999/xlink" x="0px" y="0px"
	 width="35px" height="35px" viewBox="0 0 210.4 210.4" style="enable-background:new 0 0 210.4 210.4;" xml:space="preserve"
	>
<g>
	<path d="M181.699,114.8C133.9,114.8,95.6,76.6,95.6,28.7c0-9.6,1.9-19.1,5.7-28.7c-7.7,0-13.4,1.9-21,3.8C34.4,15.3,0,57.3,0,105.2
		c0,57.4,47.8,105.2,105.2,105.2c49.701,0,89.9-34.4,101.4-80.3c1.9-7.7,1.9-13.4,3.801-21
		C200.801,112.9,191.199,114.8,181.699,114.8z M105.2,191.3c-47.8,0-86.1-38.199-86.1-86.1C19.1,67,44,36.3,76.5,24.9
		c0,1.9,0,3.8,0,3.8c0,57.4,47.801,105.2,105.199,105.2c1.9,0,3.801,0,3.801,0C174,166.5,143.4,191.3,105.2,191.3z"/>
</g>
<g>
</g>
<g>
</g>
<g>
</g>
<g>
</g>
<g>
</g>
<g>
</g>
<g>
</g>
<g>
</g>
<g>
</g>
<g>
</g>
<g>
</g>
<g>
</g>
<g>
</g>
<g>
</g>
<g>
</g>
</svg>
